<svg width="18" height="18" viewBox="0 0 18 18" fill="none" xmlns="http://www.w3.org/2000/svg">
<g id="Frame">
<g id="Group">
<path id="Vector" d="M12.797 6.82056C11.9829 6.82056 11.3206 7.4829 11.3206 8.29701C11.3206 9.37758 12.4478 10.0901 13.4207 9.63481L13.1613 9.37543C12.9553 9.16952 12.9553 8.83561 13.1613 8.62966C13.3672 8.42375 13.7011 8.42375 13.907 8.62966L14.1545 8.87713C14.5708 7.90692 13.8545 6.82056 12.797 6.82056Z" fill="white"/>
<path id="Vector_2" d="M16.4179 2.47852H1.58203C0.709699 2.47852 0 3.18821 0 4.06055V12.5334C0 13.4058 0.709699 14.1154 1.58203 14.1154H7.68164L8.57812 15.3107C8.78913 15.5921 9.21132 15.5915 9.42188 15.3107L10.3184 14.1154H16.4179C17.2903 14.1154 18 13.4058 18 12.5334V4.06055C18 3.18821 17.2903 2.47852 16.4179 2.47852ZM4.66829 7.74661C4.95953 7.74661 5.19564 7.98272 5.19564 8.27395C5.19564 8.56519 4.95953 8.8013 4.66829 8.8013H3.7113V10.3007C3.7113 10.5919 3.47516 10.8281 3.18396 10.8281C2.89273 10.8281 2.65662 10.5919 2.65662 10.3007V6.3225C2.65662 6.03127 2.89273 5.79516 3.18396 5.79516H4.79633C5.08757 5.79516 5.32368 6.03127 5.32368 6.3225C5.32368 6.61373 5.08757 6.84984 4.79633 6.84984H3.7113V7.74661H4.66829ZM9.41481 10.7941C9.14224 10.897 8.83807 10.7593 8.73524 10.4869L8.49259 9.844H6.80284L6.55738 10.4884C6.45353 10.761 6.14848 10.897 5.87689 10.7935C5.60475 10.6899 5.46813 10.3852 5.57177 10.113L7.0766 6.16187C7.16256 5.93311 7.38724 5.76605 7.65292 5.76577C7.77561 5.76534 7.89563 5.80158 7.99759 5.86982C8.09955 5.93807 8.17881 6.03521 8.22519 6.14879C8.23029 6.1612 8.16346 5.98451 9.72204 10.1145C9.82484 10.387 9.68727 10.6913 9.41481 10.7941ZM15.189 10.6574C14.9831 10.8634 14.6492 10.8634 14.4433 10.6574L14.1928 10.407C13.7924 10.6727 13.3125 10.8281 12.7969 10.8281C11.4012 10.8281 10.2658 9.69261 10.2658 8.29695C10.2658 6.90128 11.4012 5.7658 12.7969 5.7658C14.1925 5.7658 15.3281 6.90128 15.3281 8.29695C15.3281 8.79616 15.1822 9.2617 14.9317 9.65426L15.189 9.91164C15.395 10.1176 15.395 10.4515 15.189 10.6574Z" fill="white"/>
<path id="Vector_3" d="M7.20447 8.78929H8.09455L7.65155 7.61536L7.20447 8.78929Z" fill="white"/>
</g>
</g>
</svg>
