<svg width="18" height="18" viewBox="0 0 18 18" fill="none" xmlns="http://www.w3.org/2000/svg">
<path d="M3.37505 15.75C3.37505 15.8992 3.43431 16.0423 3.5398 16.1478C3.64529 16.2533 3.78836 16.3125 3.93755 16.3125H14.0625C14.2117 16.3125 14.3548 16.2533 14.4603 16.1478C14.5658 16.0423 14.625 15.8992 14.625 15.75V14.0625H3.37505V15.75ZM16.0915 4.61534C16.0077 4.55166 15.9078 4.51266 15.8031 4.50272C15.6983 4.49278 15.5929 4.5123 15.4986 4.55909L11.5454 6.53572L9.52261 1.47884C9.48096 1.37428 9.40889 1.28461 9.31573 1.22145C9.22257 1.15828 9.1126 1.12451 9.00005 1.12451C8.88749 1.12451 8.77752 1.15828 8.68436 1.22145C8.59121 1.28461 8.51914 1.37428 8.47748 1.47884L6.45473 6.53572L2.50148 4.55909C2.40729 4.5121 2.30181 4.49248 2.19702 4.50246C2.09223 4.51245 1.99235 4.55163 1.90872 4.61557C1.8251 4.6795 1.76109 4.76561 1.72398 4.86412C1.68687 4.96262 1.67815 5.06956 1.6988 5.17278L3.2513 12.9375H14.7488L16.3013 5.17278C16.3219 5.06962 16.3132 4.96276 16.2761 4.86432C16.239 4.76589 16.175 4.67982 16.0915 4.6159V4.61534ZM9.00005 10.6875C8.6661 10.6463 8.36152 10.4761 8.15132 10.2134C7.94112 9.95064 7.84197 9.61613 7.87505 9.28128C7.84197 8.94643 7.94112 8.61192 8.15132 8.34917C8.36152 8.08643 8.6661 7.91627 9.00005 7.87503C9.33399 7.91627 9.63858 8.08643 9.84877 8.34917C10.059 8.61192 10.1581 8.94643 10.125 9.28128C10.1581 9.61613 10.059 9.95064 9.84877 10.2134C9.63858 10.4761 9.33399 10.6463 9.00005 10.6875Z" fill="white"/>
</svg>
