<svg width="18" height="18" viewBox="0 0 18 18" fill="none" xmlns="http://www.w3.org/2000/svg">
<g id="Frame">
<g id="Group">
<path id="Vector" d="M15.7338 9.1799H13.1922C12.9379 9.1799 12.686 9.23 12.4511 9.32733C12.2161 9.42467 12.0026 9.56733 11.8227 9.74718C11.6429 9.92703 11.5002 10.1405 11.4029 10.3755C11.3055 10.6105 11.2554 10.8624 11.2554 11.1167C11.2554 11.371 11.3055 11.6229 11.4029 11.8579C11.5002 12.0929 11.6429 12.3064 11.8227 12.4862C12.0026 12.6661 12.2161 12.8087 12.4511 12.9061C12.686 13.0034 12.9379 13.0535 13.1922 13.0535H15.7338C15.872 13.0372 15.9985 12.9682 16.0871 12.8609C16.1756 12.7536 16.2193 12.6162 16.209 12.4775V9.7613C16.2207 9.62168 16.1777 9.48297 16.089 9.37449C16.0004 9.266 15.873 9.19623 15.7338 9.1799ZM13.1886 11.8799C13.0401 11.8799 12.8949 11.8358 12.7714 11.7533C12.648 11.6707 12.5518 11.5534 12.495 11.4161C12.4383 11.2789 12.4235 11.1279 12.4526 10.9822C12.4817 10.8366 12.5534 10.7028 12.6585 10.5979C12.7637 10.493 12.8976 10.4217 13.0433 10.3929C13.189 10.3641 13.34 10.3793 13.4771 10.4364C13.6143 10.4934 13.7314 10.5899 13.8136 10.7136C13.8959 10.8373 13.9396 10.9826 13.9392 11.1311C13.9388 11.3299 13.8595 11.5203 13.7188 11.6607C13.5781 11.8011 13.3874 11.8799 13.1886 11.8799ZM4.93925 6.1469C4.8519 6.80073 4.89539 7.46541 5.0672 8.10228C5.23901 8.73915 5.53571 9.33551 5.94005 9.8567L5.96165 9.8855C5.98885 9.92073 6.02376 9.94927 6.06369 9.96893C6.10363 9.98859 6.14754 9.99884 6.19205 9.9989C6.222 9.99852 6.25173 9.99367 6.28025 9.9845C6.33648 9.96591 6.38572 9.93063 6.42141 9.88336C6.45711 9.83609 6.47756 9.77908 6.48005 9.7199C6.50289 9.06803 6.66948 8.42925 6.96788 7.84923C7.26629 7.26922 7.68916 6.7623 8.20625 6.3647L10.0548 4.9391L11.0196 6.1991C11.0526 6.2424 11.097 6.27556 11.1479 6.29479C11.1988 6.31402 11.254 6.31854 11.3074 6.30784C11.3607 6.29713 11.4099 6.27164 11.4495 6.23426C11.489 6.19689 11.5172 6.14915 11.5308 6.0965L11.781 5.1551H14.5386C14.8181 5.1551 15.0861 5.26599 15.2839 5.46341C15.4816 5.66083 15.593 5.92866 15.5934 6.2081V8.6039H13.1922C12.5239 8.6039 11.8829 8.8694 11.4103 9.34199C10.9377 9.81458 10.6722 10.4556 10.6722 11.1239C10.6722 11.7922 10.9377 12.4332 11.4103 12.9058C11.8829 13.3784 12.5239 13.6439 13.1922 13.6439H15.5934V16.0451C15.593 16.3247 15.4817 16.5927 15.284 16.7904C15.0863 16.9881 14.8183 17.0994 14.5386 17.0999H2.83865C2.56186 17.0952 2.29798 16.982 2.10376 16.7848C1.90953 16.5875 1.80048 16.3219 1.80005 16.0451V6.1973C1.80053 5.91786 1.91187 5.65003 2.10963 5.45261C2.30739 5.25519 2.57541 5.1443 2.85485 5.1443H5.17325C5.06108 5.4696 4.98267 5.80556 4.93925 6.1469ZM5.87345 4.9553C6.17074 4.29388 6.62635 3.71585 7.20005 3.2723L8.42045 2.3399C8.48136 2.29272 8.52141 2.22361 8.53205 2.1473C8.53683 2.10944 8.53404 2.07101 8.52385 2.03424C8.51365 1.99747 8.49625 1.96309 8.47265 1.9331L7.68785 0.910702L12.3102 0.899902L11.1258 5.3675L10.3428 4.3523C10.3196 4.32188 10.2905 4.29638 10.2573 4.27727C10.2241 4.25816 10.1874 4.24582 10.1494 4.24097C10.1114 4.23611 10.0729 4.23884 10.0359 4.24899C9.99899 4.25914 9.96443 4.27651 9.93425 4.3001L7.85525 5.9021C6.8988 6.63955 6.24051 7.6973 6.00125 8.8811C5.68295 8.28362 5.50518 7.62138 5.48147 6.94482C5.45776 6.26825 5.58875 5.5952 5.86445 4.9769C5.86667 4.9694 5.86969 4.96216 5.87345 4.9553Z" fill="white"/>
</g>
</g>
</svg>
